{
    "asset" : {
        "generator" : "Khronos glTF Blender I/O v3.4.50",
        "version" : "2.0"
    },
    "scene" : 0,
    "scenes" : [
        {
            "name" : "Scene",
            "nodes" : [
                7
            ]
        }
    ],
    "nodes" : [
        {
            "mesh" : 0,
            "name" : "postvan_optics_tex_0",
            "rotation" : [
                -0.006300991401076317,
                0,
                0,
                0.9999801516532898
            ],
            "translation" : [
                0,
                -3.69091796875,
                -266.42962646484375
            ]
        },
        {
            "mesh" : 1,
            "name" : "postvan_postvan_0",
            "rotation" : [
                -0.006300991401076317,
                0,
                0,
                0.9999801516532898
            ],
            "translation" : [
                0,
                -3.69091796875,
                -266.42962646484375
            ]
        },
        {
            "mesh" : 2,
            "name" : "postvan_postvan_decal_0",
            "rotation" : [
                -0.006300991401076317,
                0,
                0,
                0.9999801516532898
            ],
            "translation" : [
                0,
                -3.69091796875,
                -266.42962646484375
            ]
        },
        {
            "mesh" : 3,
            "name" : "postvan_postvan_glass_0",
            "rotation" : [
                -0.006300991401076317,
                0,
                0,
                0.9999801516532898
            ],
            "translation" : [
                0,
                -3.69091796875,
                -266.42962646484375
            ]
        },
        {
            "children" : [
                0,
                1,
                2,
                3
            ],
            "name" : "postvan",
            "rotation" : [
                -0.7021923661231995,
                0,
                0,
                0.711987316608429
            ]
        },
        {
            "children" : [
                4
            ],
            "name" : "RootNode"
        },
        {
            "children" : [
                5
            ],
            "name" : "8d332a636c9f45fc9fbe3ba2cea1e5c4.fbx",
            "rotation" : [
                0.70710688829422,
                0,
                0,
                0.7071066498756409
            ],
            "scale" : [
                0.0010000000474974513,
                0.0010000001639127731,
                0.0010000001639127731
            ]
        },
        {
            "children" : [
                6
            ],
            "name" : "Sketchfab_model",
            "rotation" : [
                -0.70710688829422,
                0,
                0,
                0.7071066498756409
            ],
            "scale" : [
                0.956680178642273,
                0.9566802978515625,
                0.9566802978515625
            ]
        }
    ],
    "materials" : [
        {
            "name" : "optics_tex_6.001",
            "pbrMetallicRoughness" : {
                "baseColorTexture" : {
                    "index" : 0
                },
                "metallicFactor" : 0,
                "roughnessFactor" : 0
            }
        },
        {
            "name" : "postvan.001",
            "pbrMetallicRoughness" : {
                "baseColorTexture" : {
                    "index" : 1
                },
                "metallicRoughnessTexture" : {
                    "index" : 2
                }
            }
        },
        {
            "alphaMode" : "BLEND",
            "name" : "postvan_decal.001",
            "pbrMetallicRoughness" : {
                "baseColorTexture" : {
                    "index" : 3
                },
                "metallicFactor" : 0,
                "roughnessFactor" : 0.8929713368415833
            }
        },
        {
            "alphaMode" : "BLEND",
            "name" : "postvan_glass.001",
            "pbrMetallicRoughness" : {
                "baseColorFactor" : [
                    1,
                    1,
                    1,
                    0.7556515336036682
                ],
                "baseColorTexture" : {
                    "index" : 4
                },
                "metallicFactor" : 0,
                "roughnessFactor" : 0
            }
        }
    ],
    "meshes" : [
        {
            "name" : "postvan_optics_tex_0.001",
            "primitives" : [
                {
                    "attributes" : {
                        "POSITION" : 0,
                        "TEXCOORD_0" : 1,
                        "NORMAL" : 2
                    },
                    "indices" : 3,
                    "material" : 0
                }
            ]
        },
        {
            "name" : "postvan_postvan_0.001",
            "primitives" : [
                {
                    "attributes" : {
                        "POSITION" : 4,
                        "TEXCOORD_0" : 5,
                        "NORMAL" : 6
                    },
                    "indices" : 7,
                    "material" : 1
                }
            ]
        },
        {
            "name" : "postvan_postvan_decal_0.001",
            "primitives" : [
                {
                    "attributes" : {
                        "POSITION" : 8,
                        "TEXCOORD_0" : 9,
                        "TEXCOORD_1" : 10,
                        "NORMAL" : 11
                    },
                    "indices" : 12,
                    "material" : 2
                }
            ]
        },
        {
            "name" : "postvan_postvan_glass_0.001",
            "primitives" : [
                {
                    "attributes" : {
                        "POSITION" : 13,
                        "TEXCOORD_0" : 14,
                        "NORMAL" : 15
                    },
                    "indices" : 16,
                    "material" : 3
                }
            ]
        }
    ],
    "textures" : [
        {
            "sampler" : 0,
            "source" : 0
        },
        {
            "sampler" : 0,
            "source" : 1
        },
        {
            "sampler" : 0,
            "source" : 2
        },
        {
            "sampler" : 0,
            "source" : 3
        },
        {
            "sampler" : 0,
            "source" : 4
        }
    ],
    "images" : [
        {
            "mimeType" : "image/jpeg",
            "name" : "optics_tex_baseColor",
            "uri" : "optics_tex_baseColor.jpg"
        },
        {
            "mimeType" : "image/png",
            "name" : "postvan_baseColor",
            "uri" : "postvan_baseColor.png"
        },
        {
            "mimeType" : "image/png",
            "name" : "postvan_metallicRoughness",
            "uri" : "postvan_metallicRoughness.png"
        },
        {
            "mimeType" : "image/png",
            "name" : "postvan_decal_baseColor",
            "uri" : "postvan_decal_baseColor.png"
        },
        {
            "mimeType" : "image/png",
            "name" : "postvan_glass_baseColor",
            "uri" : "postvan_glass_baseColor.png"
        }
    ],
    "accessors" : [
        {
            "bufferView" : 0,
            "componentType" : 5126,
            "count" : 208,
            "max" : [
                914.7796630859375,
                2453.504638671875,
                1748.071044921875
            ],
            "min" : [
                -914.7796630859375,
                -2768.2587890625,
                913.8555297851562
            ],
            "type" : "VEC3"
        },
        {
            "bufferView" : 1,
            "componentType" : 5126,
            "count" : 208,
            "type" : "VEC2"
        },
        {
            "bufferView" : 2,
            "componentType" : 5126,
            "count" : 208,
            "type" : "VEC3"
        },
        {
            "bufferView" : 3,
            "componentType" : 5123,
            "count" : 510,
            "type" : "SCALAR"
        },
        {
            "bufferView" : 4,
            "componentType" : 5126,
            "count" : 4871,
            "max" : [
                1147.093505859375,
                2585.8330078125,
                2064.41357421875
            ],
            "min" : [
                -1138.38818359375,
                -2999.13818359375,
                157.3883056640625
            ],
            "type" : "VEC3"
        },
        {
            "bufferView" : 5,
            "componentType" : 5126,
            "count" : 4871,
            "type" : "VEC2"
        },
        {
            "bufferView" : 6,
            "componentType" : 5126,
            "count" : 4871,
            "type" : "VEC3"
        },
        {
            "bufferView" : 7,
            "componentType" : 5123,
            "count" : 11403,
            "type" : "SCALAR"
        },
        {
            "bufferView" : 8,
            "componentType" : 5126,
            "count" : 24,
            "max" : [
                906.6732788085938,
                2093.92431640625,
                1855.5052490234375
            ],
            "min" : [
                -906.6732788085938,
                978.6964721679688,
                1372.787841796875
            ],
            "type" : "VEC3"
        },
        {
            "bufferView" : 9,
            "componentType" : 5126,
            "count" : 24,
            "type" : "VEC2"
        },
        {
            "bufferView" : 10,
            "componentType" : 5126,
            "count" : 24,
            "type" : "VEC2"
        },
        {
            "bufferView" : 11,
            "componentType" : 5126,
            "count" : 24,
            "type" : "VEC3"
        },
        {
            "bufferView" : 12,
            "componentType" : 5123,
            "count" : 72,
            "type" : "SCALAR"
        },
        {
            "bufferView" : 13,
            "componentType" : 5126,
            "count" : 55,
            "max" : [
                925.453857421875,
                -711.5485229492188,
                1923.658447265625
            ],
            "min" : [
                -925.453857421875,
                -2094.87451171875,
                1312.309326171875
            ],
            "type" : "VEC3"
        },
        {
            "bufferView" : 14,
            "componentType" : 5126,
            "count" : 55,
            "type" : "VEC2"
        },
        {
            "bufferView" : 15,
            "componentType" : 5126,
            "count" : 55,
            "type" : "VEC3"
        },
        {
            "bufferView" : 16,
            "componentType" : 5123,
            "count" : 192,
            "type" : "SCALAR"
        }
    ],
    "bufferViews" : [
        {
            "buffer" : 0,
            "byteLength" : 2496,
            "byteOffset" : 0,
            "target" : 34962
        },
        {
            "buffer" : 0,
            "byteLength" : 1664,
            "byteOffset" : 2496,
            "target" : 34962
        },
        {
            "buffer" : 0,
            "byteLength" : 2496,
            "byteOffset" : 4160,
            "target" : 34962
        },
        {
            "buffer" : 0,
            "byteLength" : 1020,
            "byteOffset" : 6656,
            "target" : 34963
        },
        {
            "buffer" : 0,
            "byteLength" : 58452,
            "byteOffset" : 7676,
            "target" : 34962
        },
        {
            "buffer" : 0,
            "byteLength" : 38968,
            "byteOffset" : 66128,
            "target" : 34962
        },
        {
            "buffer" : 0,
            "byteLength" : 58452,
            "byteOffset" : 105096,
            "target" : 34962
        },
        {
            "buffer" : 0,
            "byteLength" : 22806,
            "byteOffset" : 163548,
            "target" : 34963
        },
        {
            "buffer" : 0,
            "byteLength" : 288,
            "byteOffset" : 186356,
            "target" : 34962
        },
        {
            "buffer" : 0,
            "byteLength" : 192,
            "byteOffset" : 186644,
            "target" : 34962
        },
        {
            "buffer" : 0,
            "byteLength" : 192,
            "byteOffset" : 186836,
            "target" : 34962
        },
        {
            "buffer" : 0,
            "byteLength" : 288,
            "byteOffset" : 187028,
            "target" : 34962
        },
        {
            "buffer" : 0,
            "byteLength" : 144,
            "byteOffset" : 187316,
            "target" : 34963
        },
        {
            "buffer" : 0,
            "byteLength" : 660,
            "byteOffset" : 187460,
            "target" : 34962
        },
        {
            "buffer" : 0,
            "byteLength" : 440,
            "byteOffset" : 188120,
            "target" : 34962
        },
        {
            "buffer" : 0,
            "byteLength" : 660,
            "byteOffset" : 188560,
            "target" : 34962
        },
        {
            "buffer" : 0,
            "byteLength" : 384,
            "byteOffset" : 189220,
            "target" : 34963
        }
    ],
    "samplers" : [
        {
            "magFilter" : 9729,
            "minFilter" : 9987
        }
    ],
    "buffers" : [
        {
            "byteLength" : 189604,
            "uri" : "scene.bin"
        }
    ]
}
